<svg id="Capa_1" enable-background="new 0 0 512 512" height="512" viewBox="0 0 512 512" width="512" xmlns="http://www.w3.org/2000/svg"><g><path d="m382.296 331.44h-252.592c-2.432 0-4.6 1.53-5.414 3.821l-60.113 169.067c-1.33 3.741 1.444 7.672 5.414 7.672h372.817c3.97 0 6.745-3.931 5.414-7.672l-60.112-169.066c-.815-2.291-2.983-3.822-5.414-3.822z" fill="#7acaa6"/><path d="m442.407 511.995h-21.092c3.97 0 6.753-3.929 5.419-7.67l-60.107-169.067c-.823-2.293-2.991-3.814-5.419-3.814h21.092c2.428 0 4.596 1.521 5.408 3.814l60.117 169.067c1.324 3.741-1.448 7.67-5.418 7.67z" fill="#57be92"/><path d="m253.994.012c-85.53 1.064-155.044 71.12-155.574 156.655-.183 29.585 8.526 55.893 22.255 81.688 18.513 34.784 54.581 84.256 121.052 121.14 8.869 4.921 19.677 4.921 28.546 0 66.471-36.884 102.539-86.355 121.052-121.14 13.587-25.529 22.258-51.559 22.258-80.772 0-87.698-71.639-158.665-159.589-157.571z" fill="#f9f3f1"/><path d="m413.579 157.584c0 29.213-8.664 55.246-22.253 80.773-18.515 34.779-54.585 84.252-121.055 121.138-8.87 4.926-19.672 4.926-28.542 0-3.521-1.952-6.95-3.934-10.295-5.958 6.278.919 12.794-.217 18.505-3.387 66.47-36.875 102.54-86.348 121.055-121.138 13.589-25.526 22.253-51.559 22.253-80.772 0-59.583-33.065-111.442-81.857-138.218 59.707 22.407 102.189 80.018 102.189 147.562z" fill="#efe2dd"/><g><path d="m330.535 147.252h-34.504c-6.792 0-12.298-5.463-12.298-12.202v-34.236c0-6.739-5.506-12.202-12.298-12.202h-30.871c-6.792 0-12.298 5.463-12.298 12.202v34.236c0 6.739-5.506 12.202-12.298 12.202h-34.504c-6.792 0-12.298 5.463-12.298 12.202v30.631c0 6.739 5.506 12.202 12.298 12.202h34.504c6.792 0 12.298 5.463 12.298 12.202v34.236c0 6.739 5.506 12.202 12.298 12.202h30.871c6.792 0 12.298-5.463 12.298-12.202v-34.235c0-6.739 5.506-12.202 12.298-12.202h34.504c6.792 0 12.298-5.463 12.298-12.202v-30.631c0-6.74-5.506-12.203-12.298-12.203z" fill="#ee6161"/><g fill="#e94444"><path d="m273.521 202.287h22.513c-6.792 0-12.308 5.467-12.308 12.21v34.223c0 6.743-5.499 12.21-12.292 12.21h-20.647c-.311 0-.622-.016-.933-.049 6.35-.458 11.359-5.728 11.359-12.161v-34.223c0-6.743 5.516-12.21 12.308-12.21z"/><path d="m296.034 147.245h-22.513c-6.792 0-12.308-5.45-12.308-12.193v-34.24c0-6.432-5.008-11.686-11.359-12.144.311-.033.622-.049.933-.049h20.647c6.792 0 12.292 5.45 12.292 12.194v34.24c0 6.741 5.515 12.192 12.308 12.192z"/><path d="m342.827 159.454v30.639c0 6.727-5.499 12.194-12.292 12.194h-22.513c6.792 0 12.292-5.467 12.292-12.194v-30.639c0-6.743-5.499-12.21-12.292-12.21h22.513c6.793.001 12.292 5.467 12.292 12.21z"/></g></g></g></svg>